General
Complete name                            : Dracula.2012.720p.BRRiP.x264-PLAYNOW
Format                                   : MPEG-4
Format profile                           : Base Media / Version 2
Codec ID                                 : mp42
File size                                : 284 MiB
Duration                                 : 1h 50mn

Video
ID                                       : 1
Format                                   : AVC
Format/Info                              : Advanced Video Codec
Format profile                           : Main@L3.1
Format settings, CABAC                   : Yes
Format settings, ReFrames                : 4 frames
Codec ID                                 : avc1
Codec ID/Info                            : Advanced Video Coding
Duration                                 : 1h 50mn
Bit rate mode                            : Variable
Bit rate                                 : 920 Kbps
Width                                    : 1 280 pixels
Height                                   : 544 pixels
Display aspect ratio                     : 2.35:1
Frame rate mode                          : Variable
Frame rate                               : 23.976 fps
Minimum frame rate                       : 19.557 fps
Maximum frame rate                       : 30.970 fps
Color space                              : YUV
Chroma subsampling                       : 4:2:0
Bit depth                                : 8 bits
Scan type                                : Progressive
Bits/(Pixel*Frame)                       : 0.055
Stream size                              : 723 MiB
Writing library                          : x264 core 120

Audio
ID                                       : 2
Format                                   : AAC
Format/Info                              : Advanced Audio Codec
Format profile                           : LC
Codec ID                                 : 40
Duration                                 : 1h 50mn
Bit rate mode                            : Variable
Bit rate                                 : 160 Kbps
Maximum bit rate                         : 329 Kbps
Channel(s)                               : 2 channels
Channel positions                        : Front: L R
Sampling rate                            : 48.0 KHz
Compression mode                         : Lossy
Delay relative to video                  : 93ms
Stream size                              : 126 MiB (44%)
Language                                 : English

Source: Dracula 2012 1080p 3D ITA Blu-ray AVC DD 5.1-CtrlHD

IMDB: 
 
http://www.imdb.com/title/tt1852770/

Cast: Asia Argento, Rutger Hauer, Thomas Kretschmann

Plot: lot: The tale begins with Jonathan Harker, journeying by train and carriage
from England to Count DraculaΓÇÖs crumbling, remote castle situated in the Carpathian Mountains on the border of Transylvania. The purpose of his mission is to catalogue the big library of Dracula. At first enticed by DraculaΓÇÖs gracious manner, Harker soon discovers that he has become a prisoner in the castle. He also begins to see disquieting facets of DraculaΓÇÖs nocturnal life. One night while searching for a way out of the castle, and against DraculaΓÇÖs strict admonition not to venture outside his room at night, Harker falls under the spell of three wanton female vampires, the Brides of Dracula.
 
Screens:
 
http://www.shotpix.com/images/55873578909025914673.jpg
 
http://www.shotpix.com/images/02579931635784841753.jpg
 
http://www.shotpix.com/images/38524946198546142821.jpg
 
http://www.shotpix.com/images/14099191771396080073.jpg
 
http://www.shotpix.com/images/99809913637773775751.jpg


